<svg version="1.1" xmlns="http://www.w3.org/2000/svg" viewBox="0 0 1927.5166625976562 772.6" width="1927.5166625976562" height="772.6">
  <!-- svg-source:excalidraw -->
  
  <defs>
    <style class="style-fonts">
      @font-face {
        font-family: "Virgil";
        src: url("https://excalidraw.com/Virgil.woff2");
      }
      @font-face {
        font-family: "Cascadia";
        src: url("https://excalidraw.com/Cascadia.woff2");
      }
    </style>
  </defs>
  <rect x="0" y="0" width="1927.5166625976562" height="772.6" fill="#ffffff"></rect><g stroke-linecap="round" transform="translate(409 10) rotate(0 467.5 73)"><path d="M32 0 M32 0 C218.65 -0.88, 404.62 -1.29, 903 0 M32 0 C281.85 1.69, 532.33 1.97, 903 0 M903 0 C924.7 -0.85, 934.04 12.38, 935 32 M903 0 C926.5 -1.06, 936.61 11.26, 935 32 M935 32 C932.67 65.62, 935.79 97.53, 935 114 M935 32 C934.96 53.02, 935.61 74.16, 935 114 M935 114 C933.42 137.14, 924.15 145.66, 903 146 M935 114 C933.54 134.34, 926.39 148.23, 903 146 M903 146 C669.11 148.3, 434.34 148.1, 32 146 M903 146 C569.08 148.26, 234.65 147.99, 32 146 M32 146 C9.18 146.66, 1.92 134.65, 0 114 M32 146 C11.5 146.08, -1.93 135.82, 0 114 M0 114 C-0.2 84.26, 0.39 50.23, 0 32 M0 114 C-0.66 90.93, 0.32 67.39, 0 32 M0 32 C-0.2 10.41, 9.51 0.43, 32 0 M0 32 C0.69 8.9, 10.48 -1.71, 32 0" stroke="#000000" stroke-width="1" fill="none"></path></g><g transform="translate(731 23.61104986250683) rotate(0 150.5749969482422 55.19999999999999)"><text x="0" y="0" font-family="Virgil, Segoe UI Emoji" font-size="92.4667371663351px" fill="#000000" text-anchor="start" style="white-space: pre;" direction="ltr" dominant-baseline="text-before-edge">Accueil</text></g><g stroke-linecap="round"><g transform="translate(532.6277812034846 165) rotate(0 -81.78944501828914 82.93165412946138)"><path d="M-1.14 -1.14 C-28.55 26.45, -136.94 137.8, -164.04 165.99 M0.46 0.88 C-26.63 28.55, -134.96 139.45, -161.91 167" stroke="#000000" stroke-width="1" fill="none"></path></g><g transform="translate(532.6277812034846 165) rotate(0 -81.78944501828914 82.93165412946138)"><path d="M-151.44 137.81 C-155.25 147.29, -156 156.31, -162.83 168.57 M-148.76 139.66 C-152.99 145.43, -154.11 152.14, -161.62 167.67" stroke="#000000" stroke-width="1" fill="none"></path></g><g transform="translate(532.6277812034846 165) rotate(0 -81.78944501828914 82.93165412946138)"><path d="M-136.77 152.15 C-145.53 156.71, -151.17 160.95, -162.83 168.57 M-134.09 154.01 C-141.43 156.6, -145.68 160.25, -161.62 167.67" stroke="#000000" stroke-width="1" fill="none"></path></g></g><mask></mask><g transform="translate(10 344) rotate(0 182.68333435058594 20.399999999999977)"><text x="0" y="0" font-family="Virgil, Segoe UI Emoji" font-size="34.997286481908844px" fill="#000000" text-anchor="start" style="white-space: pre;" direction="ltr" dominant-baseline="text-before-edge">créer un d'évènement</text></g><g stroke-linecap="round"><g transform="translate(713 167) rotate(0 -67.44322472289207 100.93999760196544)"><path d="M1.18 -0.3 C-21.38 33.24, -113.44 168.26, -136.06 201.9 M0.33 -1.5 C-21.79 32.18, -111.34 169.37, -133.91 203.38" stroke="#000000" stroke-width="1" fill="none"></path></g><g transform="translate(713 167) rotate(0 -67.44322472289207 100.93999760196544)"><path d="M-127.49 172.42 C-128.65 181.94, -130.93 188.3, -135.34 202.37 M-126.19 174.89 C-128.95 180.5, -130.66 187.28, -133.02 202.96" stroke="#000000" stroke-width="1" fill="none"></path></g><g transform="translate(713 167) rotate(0 -67.44322472289207 100.93999760196544)"><path d="M-110.35 183.69 C-115.62 190.71, -121.97 194.4, -135.34 202.37 M-109.05 186.16 C-115.76 189.12, -121.32 193.36, -133.02 202.96" stroke="#000000" stroke-width="1" fill="none"></path></g></g><mask></mask><g transform="translate(455 358) rotate(0 136.28334045410156 26.399999999999977)"><text x="0" y="0" font-family="Virgil, Segoe UI Emoji" font-size="44.166666666666664px" fill="#000000" text-anchor="start" style="white-space: pre;" direction="ltr" dominant-baseline="text-before-edge">se connecter</text></g><g stroke-linecap="round"><g transform="translate(867.4799396564242 164) rotate(0 7.0726210061961865 92.90747792199252)"><path d="M0.34 -1.17 C2.78 29.83, 12.77 155.89, 15.08 186.98 M-0.93 0.84 C1.36 32.03, 12.12 154.45, 14.5 185.37" stroke="#000000" stroke-width="1" fill="none"></path></g><g transform="translate(867.4799396564242 164) rotate(0 7.0726210061961865 92.90747792199252)"><path d="M0 159.3 C8.07 167.06, 9.65 177.74, 14.52 185.98 M1.5 157.49 C7.52 169.02, 13.17 179.3, 14.76 184.52" stroke="#000000" stroke-width="1" fill="none"></path></g><g transform="translate(867.4799396564242 164) rotate(0 7.0726210061961865 92.90747792199252)"><path d="M20.45 157.6 C21.6 166, 16.23 177.26, 14.52 185.98 M21.95 155.8 C19.81 168.08, 17.29 179.04, 14.76 184.52" stroke="#000000" stroke-width="1" fill="none"></path></g></g><mask></mask><g transform="translate(763 352) rotate(0 123.38333129882812 34.80000000000001)"><text x="0" y="0" font-family="Virgil, Segoe UI Emoji" font-size="58.33333333333333px" fill="#000000" text-anchor="start" style="white-space: pre;" direction="ltr" dominant-baseline="text-before-edge">S'inscrire</text></g><g stroke-linecap="round"><g transform="translate(1126.3696741150948 164) rotate(0 6.44014460850542 76.92647198484283)"><path d="M0.52 0.06 C2.59 25.65, 11.53 128.06, 13.54 153.86 M-0.66 -0.95 C1.21 24.72, 10.9 128.62, 12.96 154.8" stroke="#000000" stroke-width="1" fill="none"></path></g><g transform="translate(1126.3696741150948 164) rotate(0 6.44014460850542 76.92647198484283)"><path d="M0.41 128.76 C3.46 137.8, 10.12 147.74, 14.78 156.75 M0.26 127.27 C3.68 135.45, 6.58 144.27, 12.6 155.61" stroke="#000000" stroke-width="1" fill="none"></path></g><g transform="translate(1126.3696741150948 164) rotate(0 6.44014460850542 76.92647198484283)"><path d="M20.85 126.99 C15.87 136.81, 14.49 147.45, 14.78 156.75 M20.71 125.5 C18.14 134.21, 15.06 143.55, 12.6 155.61" stroke="#000000" stroke-width="1" fill="none"></path></g></g><mask></mask><g transform="translate(1077 333) rotate(0 111.99166870117188 48)"><text x="0" y="0" font-family="Virgil, Segoe UI Emoji" font-size="40.09920634920638px" fill="#000000" text-anchor="start" style="white-space: pre;" direction="ltr" dominant-baseline="text-before-edge"> </text><text x="0" y="48" font-family="Virgil, Segoe UI Emoji" font-size="40.09920634920638px" fill="#000000" text-anchor="start" style="white-space: pre;" direction="ltr" dominant-baseline="text-before-edge">évènements</text></g><g stroke-linecap="round"><g transform="translate(1333.3680694415425 158) rotate(0 44.81147559572378 42.306974285216995)"><path d="M0.19 -0.07 C14.82 14.08, 73.61 70.05, 88.41 84.15 M-1.17 -1.16 C13.81 13.29, 75.9 71.83, 90.79 85.77" stroke="#000000" stroke-width="1" fill="none"></path></g><g transform="translate(1333.3680694415425 158) rotate(0 44.81147559572378 42.306974285216995)"><path d="M63.1 72.88 C73.12 77.96, 83.48 80.68, 91.11 87.47 M63.26 73.78 C73.42 77.64, 81.88 81.29, 90.36 84.89" stroke="#000000" stroke-width="1" fill="none"></path></g><g transform="translate(1333.3680694415425 158) rotate(0 44.81147559572378 42.306974285216995)"><path d="M77.16 57.93 C82.12 68.31, 87.52 76.29, 91.11 87.47 M77.31 58.83 C82.7 67.73, 86.34 76.5, 90.36 84.89" stroke="#000000" stroke-width="1" fill="none"></path></g></g><mask></mask><g transform="translate(1354 247) rotate(0 126.16666412353516 26.400000000000006)"><text x="0" y="0" font-family="Virgil, Segoe UI Emoji" font-size="44.16666666666665px" fill="#000000" text-anchor="start" style="white-space: pre;" direction="ltr" dominant-baseline="text-before-edge">Mon Espace</text></g><g stroke-linecap="round"><g transform="translate(1195 453) rotate(0 0.4539834891072587 54.73532115683889)"><path d="M-1.01 0.72 C-1.03 18.65, -0.5 90.15, -0.18 107.92 M0.66 0.06 C1 18.15, 2 91.38, 1.91 109.41" stroke="#000000" stroke-width="1" fill="none"></path></g><g transform="translate(1195 453) rotate(0 0.4539834891072587 54.73532115683889)"><path d="M-7.31 79.31 C-5.51 89.48, -3.46 99.33, 0.9 109.08 M-8.82 81.28 C-5.78 89.47, -3.26 96.51, 1.22 108.62" stroke="#000000" stroke-width="1" fill="none"></path></g><g transform="translate(1195 453) rotate(0 0.4539834891072587 54.73532115683889)"><path d="M13.21 79.19 C8.99 89.22, 5.03 99.11, 0.9 109.08 M11.7 81.16 C9.41 89.4, 6.61 96.47, 1.22 108.62" stroke="#000000" stroke-width="1" fill="none"></path></g></g><mask></mask><g transform="translate(1082 580) rotate(0 158.8333282470703 40.80000000000001)"><text x="0" y="0" font-family="Virgil, Segoe UI Emoji" font-size="34.166666666666664px" fill="#000000" text-anchor="start" style="white-space: pre;" direction="ltr" dominant-baseline="text-before-edge">Voir le détail d'un </text><text x="0" y="40.8" font-family="Virgil, Segoe UI Emoji" font-size="34.166666666666664px" fill="#000000" text-anchor="start" style="white-space: pre;" direction="ltr" dominant-baseline="text-before-edge">évènement</text></g><g stroke-linecap="round"><g transform="translate(1485 306.00000000000006) rotate(0 20.198137307045954 33.82881884305266)"><path d="M0.12 0.19 C6.49 11.41, 32.68 57.2, 39.32 68.41 M-1.27 -0.76 C5.39 10.61, 34.93 54.97, 41.67 66.51" stroke="#000000" stroke-width="1" fill="none"></path></g><g transform="translate(1485 306.00000000000006) rotate(0 20.198137307045954 33.82881884305266)"><path d="M18.29 46.97 C28.17 55.24, 35.91 61.99, 40.99 65.56 M17.76 47.26 C24.73 53.19, 31.44 56.86, 40.97 66" stroke="#000000" stroke-width="1" fill="none"></path></g><g transform="translate(1485 306.00000000000006) rotate(0 20.198137307045954 33.82881884305266)"><path d="M35.66 36.04 C38.79 48.64, 39.68 59.7, 40.99 65.56 M35.14 36.33 C37.62 45.25, 39.75 51.81, 40.97 66" stroke="#000000" stroke-width="1" fill="none"></path></g></g><mask></mask><g transform="translate(1423 396) rotate(0 206.77499389648438 19.19999999999999)"><text x="0" y="0" font-family="Virgil, Segoe UI Emoji" font-size="32.28764154163112px" fill="#000000" text-anchor="start" style="white-space: pre;" direction="ltr" dominant-baseline="text-before-edge">evenements du participant</text></g><g stroke-linecap="round"><g transform="translate(1608.1408648088286 446.2109078754421) rotate(0 28.596029744487396 47.07889585768345)"><path d="M0.04 0.56 C0.36 1.73, -7.73 -8.54, 2.48 7.39 C12.68 23.33, 51.35 81.48, 61.27 96.16 M-1.4 -0.19 C-1.32 0.56, -8.98 -10.9, 1.28 5.39 C11.54 21.68, 50.02 82.42, 60.17 97.57" stroke="#000000" stroke-width="1" fill="none"></path></g><g transform="translate(1608.1408648088286 446.2109078754421) rotate(0 28.596029744487396 47.07889585768345)"><path d="M37.16 78.72 C44.88 84.66, 53.01 91.99, 59.3 99.54 M36.41 79.05 C44.51 85.13, 50.11 90.69, 61.04 97.89" stroke="#000000" stroke-width="1" fill="none"></path></g><g transform="translate(1608.1408648088286 446.2109078754421) rotate(0 28.596029744487396 47.07889585768345)"><path d="M54.37 67.55 C56.22 77.33, 58.44 88.5, 59.3 99.54 M53.62 67.87 C56.5 77.29, 56.83 86.26, 61.04 97.89" stroke="#000000" stroke-width="1" fill="none"></path></g></g><mask></mask><g transform="translate(1508 558) rotate(0 189.01666259765625 19.80000000000001)"><text x="0" y="0" font-family="Virgil, Segoe UI Emoji" font-size="33.33333333333333px" fill="#000000" text-anchor="start" style="white-space: pre;" direction="ltr" dominant-baseline="text-before-edge">Détails de l'évènement</text></g><g stroke-linecap="round"><g transform="translate(1700 609) rotate(0 18.599736644174072 49.097550921817344)"><path d="M-0.03 1.02 C6.59 17.11, 32.34 81.74, 38.71 97.69 M-1.51 0.51 C5.11 16.76, 31.63 79.71, 38.13 95.92" stroke="#000000" stroke-width="1" fill="none"></path></g><g transform="translate(1700 609) rotate(0 18.599736644174072 49.097550921817344)"><path d="M19.6 74.96 C23.58 78.83, 26.22 84.95, 39.21 94.07 M17.78 74.58 C22.5 80.36, 28.08 85.9, 37.68 95.51" stroke="#000000" stroke-width="1" fill="none"></path></g><g transform="translate(1700 609) rotate(0 18.599736644174072 49.097550921817344)"><path d="M38.57 67.13 C38.57 72.67, 37.15 80.47, 39.21 94.07 M36.75 66.76 C36.41 74.67, 36.88 82.31, 37.68 95.51" stroke="#000000" stroke-width="1" fill="none"></path></g></g><mask></mask><g transform="translate(1611 729) rotate(0 153.25833129882812 16.80000000000001)"><text x="0" y="0" font-family="Virgil, Segoe UI Emoji" font-size="28.33333333333332px" fill="#000000" text-anchor="start" style="white-space: pre;" direction="ltr" dominant-baseline="text-before-edge">Billet de l'évènemenet</text></g><g transform="translate(10 227) rotate(0 145.89166259765625 22.80000000000001)"><text x="0" y="0" font-family="Virgil, Segoe UI Emoji" font-size="38.33333333333333px" fill="#000000" text-anchor="start" style="white-space: pre;" direction="ltr" dominant-baseline="text-before-edge">Valider un billet</text></g><g stroke-linecap="round"><g transform="translate(404 127) rotate(0 -64.89437626859637 50.55202692386692)"><path d="M0.27 -0.41 C-21.12 16.45, -107.61 84.3, -129.42 101.5 M-1.05 -1.67 C-22.45 15.32, -108.3 85.69, -130.06 102.78" stroke="#000000" stroke-width="1" fill="none"></path></g><g transform="translate(404 127) rotate(0 -64.89437626859637 50.55202692386692)"><path d="M-115.22 78.08 C-118.57 81.67, -119.69 88.49, -129.73 103.62 M-114.01 77.53 C-118.24 83.37, -121.49 87.28, -129.11 102.29" stroke="#000000" stroke-width="1" fill="none"></path></g><g transform="translate(404 127) rotate(0 -64.89437626859637 50.55202692386692)"><path d="M-102.35 94.07 C-108.47 94.3, -112.31 97.74, -129.73 103.62 M-101.14 93.51 C-108.29 95.87, -114.33 96.3, -129.11 102.29" stroke="#000000" stroke-width="1" fill="none"></path></g></g><mask></mask></svg>